<svg width="68" height="68" viewBox="0 0 68 68" fill="none" xmlns="http://www.w3.org/2000/svg">
<circle cx="34" cy="34" r="34" fill="white"/>
<path d="M33.9111 23.001C33.0225 23.001 32.2637 22.707 31.6348 22.1191C31.0195 21.5176 30.7119 20.7861 30.7119 19.9248C30.7119 19.0498 31.0264 18.3115 31.6553 17.71C32.2842 17.0947 33.0361 16.7871 33.9111 16.7871C34.7861 16.7871 35.5381 17.0947 36.167 17.71C36.7959 18.3115 37.1104 19.0498 37.1104 19.9248C37.1104 20.7861 36.7959 21.5176 36.167 22.1191C35.5518 22.707 34.7998 23.001 33.9111 23.001ZM28.6816 45.7441C29.9531 45.7441 30.7461 45.6279 31.0605 45.3955C31.3887 45.1494 31.5869 44.8896 31.6553 44.6162C31.7236 44.3428 31.7578 44.001 31.7578 43.5908V32.291C31.7578 31.3066 31.6689 30.6641 31.4912 30.3633C31.3271 30.0625 30.8691 29.9121 30.1172 29.9121H28.6406V27.6562C29.9805 27.6562 31.0332 27.5605 31.7988 27.3691C32.5645 27.1641 33.1045 27.0205 33.4189 26.9385C33.7334 26.8428 34.0752 26.7949 34.4443 26.7949C35.1553 26.7949 35.6201 27.0068 35.8389 27.4307C36.0713 27.8408 36.1875 28.5039 36.1875 29.4199V43.5908C36.1875 44.4521 36.3242 44.9922 36.5977 45.2109C37.0625 45.5664 37.9443 45.7441 39.2432 45.7441V48H28.6816V45.7441Z" fill="#0014C9"/>
</svg>
