<svg width="316" height="114" viewBox="0 0 316 114" fill="none" xmlns="http://www.w3.org/2000/svg">
<g id="kupong">
<g id="kupong-bg">
<path id="Vector" d="M303.537 1H149.338V56.9944V112.989C149.338 112.989 299.227 113 302.54 113C302.54 113 302.54 109.035 307.524 104.575C311.531 100.989 315 100.115 315 100.115V14.5565C315 14.5565 310.595 13.0302 308.073 10.9115C304.534 7.93805 303.537 1 303.537 1Z" fill="#FFA070" stroke="#FFA070"/>
<path id="Vector_2" d="M8.97484 1H166.662V56.9944V112.989C166.662 112.989 15.777 113 12.4637 113C12.4637 113 10.9685 107.053 6.9812 104.575C4.15749 102.82 1.00003 102.379 1.00003 102.379V14.5565C1.00003 14.5565 5.19347 12.1845 6.9812 9.42478C8.93858 6.4031 8.97484 1 8.97484 1Z" fill="#FFA070" stroke="#FFA070"/>
<g id="Group 77">
<path id="Vector 8" d="M287.476 103.295C287.476 103.295 287.864 99.6697 291.586 97.3717C294.986 95.2728 298.26 95.523 298.26 95.523" stroke="white" stroke-width="2.5"/>
<path id="Vector_3" d="M297.828 20.4034V96.4946M288.443 11.4065H29.6508C29.6508 11.4065 29.1811 15.0178 25.4238 17.0241C21.9922 18.8565 18.3789 18.6292 18.3789 18.6292L18.3872 96.0726C18.3872 96.0726 21.269 95.2593 24.9777 97.4747C29.0383 99.9004 29.1894 102.894 29.1894 102.894C29.1894 102.894 240.982 103.177 289.017 103.295" stroke="white" stroke-width="2.5"/>
<path id="Vector 9" d="M289.53 10.5186C289.53 10.5186 288.019 15.835 291.357 18.3252C294.404 20.5995 299.074 21.205 299.074 21.205" stroke="white" stroke-width="2.5"/>
</g>
<path id="93899496" d="M275.592 81.3593C275.58 79.34 276.999 78.3216 279.85 78.304C280.7 78.2988 281.498 78.4326 282.245 78.7053C282.983 78.9781 283.579 79.3904 284.033 79.9423C284.488 80.4942 284.717 81.1645 284.722 81.9531C284.725 82.4211 284.628 82.8421 284.431 83.2159C284.234 83.5812 283.949 83.7649 283.576 83.7672C283.455 83.768 283.351 83.7426 283.264 83.6911C283.177 83.631 283.094 83.5448 283.015 83.4327C283.368 83.0838 283.543 82.6277 283.54 82.0644C283.535 81.3364 283.272 80.805 282.75 80.4702C282.228 80.1268 281.533 79.9404 280.666 79.9111C281.005 80.0736 281.267 80.3277 281.451 80.6732C281.626 81.0188 281.715 81.4083 281.718 81.8416C281.723 82.6129 281.454 83.2083 280.91 83.6276C280.358 84.047 279.662 84.2593 278.821 84.2645C278.214 84.2682 277.668 84.1546 277.181 83.9236C276.685 83.684 276.298 83.344 276.018 82.9037C275.738 82.4634 275.596 81.9486 275.592 81.3593ZM276.502 81.3537C276.505 81.8044 276.728 82.1323 277.171 82.3376C277.614 82.5342 278.131 82.6307 278.72 82.6271C279.257 82.6238 279.733 82.5212 280.148 82.3193C280.554 82.1088 280.756 81.7782 280.753 81.3275C280.75 80.8596 280.557 80.5271 280.175 80.3301C279.784 80.1332 279.293 80.0365 278.704 80.0401C278.115 80.0438 277.6 80.1509 277.159 80.3617C276.718 80.5724 276.499 80.9031 276.502 81.3537ZM275.564 74.6902C275.558 73.7975 275.727 73.0858 276.071 72.555C276.414 72.0155 276.937 71.7437 277.639 71.7393C278.116 71.7364 278.545 71.8681 278.928 72.1344C279.311 72.3921 279.608 72.7456 279.819 73.1949C279.928 72.6136 280.163 72.1485 280.525 71.7996C280.887 71.442 281.345 71.2615 281.9 71.2581C282.455 71.2547 282.941 71.399 283.359 71.6911C283.776 71.9832 284.1 72.3929 284.328 72.9202C284.557 73.4474 284.673 74.0577 284.678 74.7511C284.682 75.4617 284.547 76.0649 284.273 76.5606C283.99 77.0563 283.558 77.306 282.977 77.3096C282.631 77.3117 282.405 77.2048 282.299 76.9887C283.094 76.5938 283.488 75.8591 283.482 74.7844C283.478 74.1691 283.345 73.7019 283.083 73.3828C282.821 73.0551 282.43 72.8929 281.91 72.8961C281.399 72.8992 281.023 73.0705 280.782 73.41C280.542 73.7495 280.423 74.2139 280.427 74.8032C280.428 75.0286 280.442 75.2451 280.47 75.453L279.651 75.458C279.63 74.8168 279.479 74.2934 279.199 73.8878C278.919 73.4822 278.506 73.281 277.96 73.2844C277.562 73.2868 277.264 73.436 277.066 73.7319C276.86 74.0192 276.758 74.4271 276.762 74.9558C276.764 75.3978 276.875 75.7698 277.094 76.0718C277.312 76.3738 277.634 76.5885 278.059 76.7158C278 76.8982 277.91 77.0288 277.789 77.1075C277.659 77.1863 277.495 77.2263 277.296 77.2276C276.923 77.2298 276.606 77.1061 276.344 76.8564C276.083 76.6067 275.89 76.2872 275.766 75.8979C275.634 75.5088 275.567 75.1062 275.564 74.6902ZM277.529 64.4857C277.989 64.4828 278.401 64.632 278.767 64.9331C279.124 65.2342 279.434 65.6266 279.697 66.1104C280.04 65.5102 280.41 65.0269 280.806 64.6605C281.203 64.294 281.67 64.1092 282.207 64.1059C283.022 64.1008 283.63 64.3744 284.032 64.9266C284.425 65.4789 284.625 66.2143 284.631 67.133C284.636 68.0256 284.441 68.7549 284.046 69.3206C283.642 69.8865 283.046 70.1718 282.257 70.1767C281.763 70.1797 281.307 70.0135 280.889 69.6781C280.471 69.334 280.139 68.9027 279.893 68.3842C279.55 68.863 279.209 69.2377 278.873 69.5085C278.528 69.7793 278.135 69.916 277.693 69.9188C276.991 69.9231 276.452 69.6664 276.076 69.1487C275.7 68.631 275.51 67.9735 275.505 67.1762C275.5 66.3875 275.665 65.7452 276 65.2491C276.335 64.7444 276.845 64.4899 277.529 64.4857ZM277.552 68.2166C277.873 68.2146 278.162 68.0958 278.421 67.8602C278.671 67.6247 278.937 67.2894 279.221 66.8543C279.02 66.5955 278.776 66.3977 278.489 66.2608C278.194 66.1153 277.877 66.0436 277.539 66.0456C277.201 66.0477 276.928 66.1534 276.722 66.3627C276.515 66.572 276.413 66.8413 276.415 67.1706C276.417 67.4999 276.522 67.7593 276.731 67.9486C276.932 68.1294 277.205 68.2187 277.552 68.2166ZM282.36 65.808C282.1 65.8096 281.858 65.8934 281.634 66.0594C281.41 66.2255 281.212 66.426 281.04 66.6611C280.868 66.8962 280.649 67.2312 280.383 67.6662C280.618 67.9334 280.901 68.144 281.232 68.2979C281.562 68.4519 281.9 68.5278 282.247 68.5257C282.706 68.5229 283.07 68.4036 283.337 68.168C283.595 67.9237 283.723 67.5806 283.721 67.1386C283.718 66.7053 283.599 66.3767 283.364 66.1528C283.128 65.9202 282.794 65.8053 282.36 65.808ZM275.462 60.2601C275.45 58.2408 276.869 57.2224 279.72 57.2048C280.57 57.1996 281.368 57.3334 282.115 57.6061C282.853 57.8789 283.449 58.2912 283.904 58.8431C284.358 59.395 284.587 60.0653 284.592 60.8539C284.595 61.3219 284.498 61.7428 284.301 62.1167C284.104 62.482 283.819 62.6657 283.446 62.668C283.325 62.6688 283.221 62.6434 283.134 62.5919C283.047 62.5318 282.964 62.4456 282.885 62.3335C283.238 61.9846 283.413 61.5285 283.41 60.9652C283.405 60.2372 283.142 59.7058 282.62 59.371C282.098 59.0276 281.403 58.8412 280.536 58.8118C280.875 58.9744 281.137 59.2285 281.321 59.574C281.496 59.9196 281.586 60.3091 281.588 60.7424C281.593 61.5137 281.324 62.1091 280.78 62.5284C280.228 62.9478 279.532 63.1601 278.691 63.1653C278.084 63.169 277.538 63.0554 277.051 62.8244C276.555 62.5848 276.168 62.2448 275.888 61.8045C275.608 61.3642 275.466 60.8494 275.462 60.2601ZM276.372 60.2545C276.375 60.7052 276.598 61.0331 277.041 61.2384C277.484 61.435 278.001 61.5315 278.59 61.5279C279.127 61.5246 279.603 61.422 280.018 61.2201C280.424 61.0096 280.626 60.679 280.623 60.2283C280.62 59.7603 280.427 59.4279 280.045 59.2309C279.654 59.034 279.163 58.9373 278.574 58.9409C277.985 58.9446 277.47 59.0517 277.029 59.2624C276.588 59.4732 276.369 59.8039 276.372 60.2545ZM275.419 53.227C275.406 51.2077 276.826 50.1893 279.677 50.1718C280.526 50.1665 281.325 50.3003 282.072 50.573C282.81 50.8458 283.406 51.2582 283.86 51.81C284.314 52.3619 284.544 53.0322 284.549 53.8208C284.552 54.2888 284.454 54.7098 284.257 55.0837C284.06 55.4489 283.775 55.6326 283.403 55.6349C283.281 55.6357 283.177 55.6103 283.09 55.5589C283.003 55.4987 282.92 55.4126 282.842 55.3004C283.195 54.9515 283.37 54.4954 283.366 53.9321C283.362 53.2041 283.099 52.6728 282.576 52.338C282.054 51.9945 281.36 51.8081 280.493 51.7788C280.832 51.9414 281.094 52.1954 281.278 52.541C281.453 52.8866 281.542 53.276 281.545 53.7093C281.55 54.4807 281.28 55.076 280.737 55.4953C280.185 55.9148 279.488 56.127 278.648 56.1322C278.041 56.136 277.494 56.0223 277.008 55.7913C276.512 55.5517 276.124 55.2117 275.844 54.7715C275.564 54.3312 275.422 53.8164 275.419 53.227ZM276.329 53.2214C276.332 53.6721 276.555 54.0001 276.998 54.2053C277.441 54.4019 277.957 54.4984 278.547 54.4948C279.084 54.4915 279.56 54.3889 279.975 54.187C280.381 53.9765 280.583 53.6459 280.58 53.1953C280.577 52.7273 280.384 52.3948 280.002 52.1978C279.61 52.0009 279.12 51.9042 278.531 51.9079C277.941 51.9115 277.426 52.0187 276.986 52.2294C276.545 52.4401 276.326 52.7708 276.329 53.2214ZM281.367 43.895L281.36 42.7381L282.323 42.8231L282.329 43.8891L284.201 43.8776L284.211 45.3986L282.339 45.4101L282.361 48.946C282.362 49.0934 282.315 49.2106 282.22 49.2979C282.116 49.3852 281.982 49.4294 281.818 49.4304C281.627 49.4315 281.384 49.3377 281.088 49.1489L275.631 45.4514L275.622 43.9304L281.367 43.895ZM277.451 45.4402L281.393 48.12L281.377 45.416L277.451 45.4402ZM275.332 39.1609C275.32 37.1416 276.739 36.1232 279.59 36.1056C280.44 36.1004 281.238 36.2342 281.985 36.5069C282.723 36.7797 283.32 37.192 283.774 37.7439C284.228 38.2958 284.457 38.9661 284.462 39.7547C284.465 40.2227 284.368 40.6436 284.171 41.0175C283.974 41.3827 283.689 41.5665 283.316 41.5688C283.195 41.5695 283.091 41.5442 283.004 41.4927C282.917 41.4326 282.834 41.3464 282.755 41.2342C283.108 40.8854 283.283 40.4293 283.28 39.866C283.275 39.138 283.012 38.6066 282.49 38.2718C281.968 37.9284 281.273 37.742 280.406 37.7126C280.745 37.8752 281.007 38.1293 281.191 38.4748C281.367 38.8204 281.456 39.2099 281.458 39.6432C281.463 40.4145 281.194 41.0099 280.65 41.4292C280.098 41.8486 279.402 42.0609 278.561 42.0661C277.955 42.0698 277.408 41.9562 276.921 41.7252C276.426 41.4856 276.038 41.1456 275.758 40.7053C275.478 40.265 275.336 39.7502 275.332 39.1609ZM276.242 39.1553C276.245 39.606 276.468 39.9339 276.911 40.1392C277.354 40.3358 277.871 40.4323 278.46 40.4287C278.997 40.4254 279.473 40.3228 279.888 40.1209C280.294 39.9104 280.496 39.5798 280.493 39.1291C280.49 38.6611 280.298 38.3287 279.915 38.1317C279.524 37.9347 279.033 37.8381 278.444 37.8417C277.855 37.8453 277.34 37.9525 276.899 38.1632C276.458 38.374 276.239 38.7046 276.242 39.1553ZM275.284 31.3738C275.281 30.9059 275.378 30.4893 275.576 30.124C275.773 29.7501 276.057 29.5621 276.43 29.5598C276.551 29.559 276.656 29.5887 276.743 29.6488C276.83 29.7003 276.913 29.7821 276.991 29.8943C276.638 30.2432 276.463 30.6992 276.467 31.2626C276.471 31.9732 276.739 32.5046 277.269 32.8567C277.792 33.2001 278.482 33.3865 279.34 33.4159C279.01 33.2793 278.753 33.0339 278.568 32.6797C278.384 32.3168 278.291 31.9187 278.288 31.4854C278.283 30.714 278.557 30.1187 279.109 29.6993C279.652 29.2799 280.345 29.0677 281.185 29.0625C281.792 29.0587 282.343 29.1767 282.838 29.4163C283.325 29.6473 283.709 29.983 283.989 30.4232C284.269 30.8635 284.41 31.3783 284.414 31.9676C284.427 33.9869 283.007 35.0054 280.156 35.0229C279.307 35.0282 278.513 34.8944 277.774 34.6216C277.027 34.3488 276.427 33.9365 275.973 33.3846C275.519 32.8328 275.289 32.1625 275.284 31.3738ZM279.253 31.9994C279.256 32.4241 279.453 32.7392 279.844 32.9448C280.227 33.1418 280.713 33.2558 281.302 33.2868C281.909 33.2571 282.428 33.1412 282.86 32.9392C283.292 32.7372 283.507 32.4152 283.504 31.9733C283.501 31.5226 283.278 31.199 282.835 31.0024C282.392 30.7971 281.876 30.6963 281.286 30.6999C280.766 30.7031 280.299 30.8143 279.884 31.0335C279.461 31.2528 279.251 31.5748 279.253 31.9994Z" fill="white"/>
<path id="93899496_2" d="M39.9013 31.8951C39.8951 33.9144 38.4663 34.9196 35.6149 34.9107C34.7656 34.9081 33.9687 34.767 33.2243 34.4873C32.4885 34.2077 31.8961 33.7899 31.4471 33.2338C30.9982 32.6777 30.775 32.0054 30.7774 31.2167C30.7789 30.7487 30.8798 30.3287 31.0803 29.9566C31.2808 29.5933 31.5673 29.4121 31.94 29.4133C32.0613 29.4137 32.1653 29.44 32.2518 29.4923C32.3382 29.5532 32.4203 29.6401 32.498 29.753C32.1415 30.0986 31.9625 30.553 31.9607 31.1164C31.9585 31.8444 32.2168 32.3782 32.7357 32.7178C33.2547 33.0661 33.9474 33.2589 34.814 33.2963C34.4765 33.1305 34.2173 32.8741 34.0363 32.5268C33.8641 32.1796 33.7786 31.7894 33.78 31.356C33.7824 30.5847 34.0572 29.9919 34.6045 29.5776C35.1605 29.1633 35.8588 28.9575 36.6994 28.9601C37.3061 28.962 37.8517 29.0807 38.3363 29.3162C38.8296 29.5604 39.2142 29.9039 39.4901 30.3468C39.7661 30.7896 39.9032 31.3057 39.9013 31.8951ZM38.9913 31.8922C38.9927 31.4416 38.7728 31.1115 38.3314 30.9022C37.89 30.7015 37.3747 30.6002 36.7854 30.5984C36.248 30.5967 35.771 30.6949 35.3544 30.8929C34.9465 31.0997 34.7418 31.4284 34.7404 31.879C34.7389 32.347 34.9285 32.6813 35.3093 32.8818C35.6986 33.0823 36.188 33.1835 36.7773 33.1854C37.3666 33.1872 37.8826 33.0848 38.3253 32.8782C38.7679 32.6715 38.9899 32.3429 38.9913 31.8922ZM39.8676 38.5642C39.8648 39.4568 39.6893 40.167 39.341 40.6946C38.9927 41.2308 38.4675 41.4978 37.7655 41.4957C37.2888 41.4942 36.8603 41.3585 36.4798 41.0887C36.0992 40.8275 35.8057 40.4712 35.5991 40.0199C35.4846 40.6002 35.2448 41.0632 34.8798 41.4087C34.5147 41.7629 34.0548 41.9391 33.5001 41.9374C32.9454 41.9357 32.4606 41.7869 32.0455 41.4909C31.6304 41.1949 31.311 40.7823 31.0873 40.2529C30.8636 39.7235 30.7529 39.1122 30.755 38.4189C30.7572 37.7082 30.8978 37.1063 31.1766 36.6132C31.4642 36.1201 31.8983 35.8744 32.4789 35.8762C32.8256 35.8773 33.0506 35.9863 33.1539 36.2033C32.3554 36.5908 31.9544 37.3219 31.9511 38.3966C31.9492 39.0119 32.0777 39.4803 32.3367 39.8018C32.5957 40.1319 32.9852 40.2978 33.5052 40.2994C34.0165 40.301 34.3941 40.1332 34.6378 39.7959C34.8815 39.4587 35.0043 38.9954 35.0061 38.4061C35.0068 38.1807 34.9945 37.964 34.9691 37.756L35.7881 37.7585C35.8034 38.3999 35.9491 38.9247 36.2252 39.3329C36.5013 39.7411 36.9123 39.946 37.4583 39.9477C37.857 39.9489 38.1564 39.8025 38.3567 39.5085C38.5656 39.2231 38.6708 38.8161 38.6725 38.2875C38.6738 37.8455 38.5667 37.4725 38.3509 37.1685C38.1352 36.8645 37.8152 36.6468 37.391 36.5155C37.4522 36.3337 37.5436 36.2039 37.6652 36.1263C37.7954 36.0487 37.9602 36.0102 38.1595 36.0109C38.5322 36.012 38.8481 36.1387 39.1074 36.3908C39.3666 36.6429 39.5563 36.9642 39.6764 37.3546C39.8052 37.745 39.8689 38.1482 39.8676 38.5642ZM37.808 48.75C37.3486 48.7486 36.9374 48.5957 36.5744 48.2912C36.22 47.9868 35.9136 47.5915 35.6551 47.1053C35.3065 47.7023 34.9324 48.1821 34.5326 48.5449C34.1328 48.9076 33.6642 49.0882 33.1269 49.0865C32.3122 49.084 31.7064 48.8047 31.3095 48.2488C30.9212 47.693 30.7285 46.9557 30.7314 46.037C30.7341 45.1444 30.9357 44.417 31.3361 43.8549C31.7452 43.2928 32.3441 43.013 33.1328 43.0155C33.6268 43.017 34.0812 43.1874 34.4962 43.5267C34.9111 43.8747 35.2391 44.309 35.4801 44.8298C35.8283 44.3542 36.1718 43.9826 36.5106 43.715C36.8581 43.4474 37.2528 43.3143 37.6948 43.3157C38.3968 43.3178 38.9334 43.5795 39.3044 44.1007C39.6755 44.6218 39.8598 45.2811 39.8573 46.0784C39.8548 46.8671 39.6838 47.5079 39.3443 48.0008C39.0047 48.5024 38.4926 48.7522 37.808 48.75ZM37.8196 45.0191C37.4989 45.0181 37.2082 45.1342 36.9475 45.3673C36.6954 45.6006 36.4257 45.9334 36.1384 46.3658C36.3369 46.6265 36.5789 46.8265 36.8645 46.9661C37.1587 47.1143 37.4748 47.189 37.8128 47.19C38.1508 47.1911 38.4241 47.0879 38.6328 46.8806C38.8414 46.6732 38.9463 46.4049 38.9473 46.0756C38.9483 45.7462 38.8451 45.4859 38.6377 45.2946C38.4389 45.112 38.1662 45.0201 37.8196 45.0191ZM32.9892 47.3831C33.2492 47.3839 33.4921 47.3023 33.718 47.1383C33.9438 46.9744 34.1437 46.7756 34.3178 46.5422C34.4919 46.3087 34.7139 45.9757 34.9839 45.5432C34.7507 45.2739 34.4697 45.0606 34.1409 44.9036C33.812 44.7466 33.4743 44.6676 33.1276 44.6665C32.6683 44.665 32.3039 44.7809 32.0345 45.0141C31.7738 45.2559 31.6427 45.5979 31.6414 46.0399C31.64 46.4732 31.756 46.8029 31.9893 47.0289C32.2226 47.2637 32.5559 47.3817 32.9892 47.3831ZM39.8358 52.9946C39.8295 55.0139 38.4007 56.0191 35.5494 56.0103C34.7001 56.0076 33.9032 55.8665 33.1587 55.5868C32.4229 55.3072 31.8305 54.8894 31.3816 54.3333C30.9326 53.7772 30.7094 53.1049 30.7119 52.3162C30.7133 51.8482 30.8143 51.4282 31.0148 51.0561C31.2152 50.6928 31.5018 50.5117 31.8745 50.5128C31.9958 50.5132 32.0997 50.5395 32.1862 50.5918C32.2727 50.6527 32.3548 50.7396 32.4324 50.8525C32.076 51.1981 31.8969 51.6526 31.8952 52.2159C31.8929 52.9439 32.1513 53.4777 32.6702 53.8173C33.1891 54.1656 33.8819 54.3584 34.7484 54.3958C34.4109 54.23 34.1517 53.9736 33.9708 53.6263C33.7985 53.2791 33.7131 52.8889 33.7144 52.4555C33.7168 51.6842 33.9917 51.0914 34.539 50.6771C35.0949 50.2628 35.7932 50.057 36.6339 50.0596C37.2406 50.0615 37.7862 50.1802 38.2708 50.4157C38.764 50.6599 39.1486 51.0034 39.4246 51.4463C39.7006 51.8891 39.8376 52.4052 39.8358 52.9946ZM38.9258 52.9917C38.9272 52.5411 38.7072 52.211 38.2659 52.0017C37.8245 51.801 37.3091 51.6997 36.7198 51.6979C36.1825 51.6962 35.7055 51.7944 35.2889 51.9924C34.8809 52.1992 34.6762 52.5279 34.6748 52.9785C34.6734 53.4465 34.863 53.7808 35.2437 53.9813C35.6331 54.1818 36.1224 54.283 36.7118 54.2849C37.3011 54.2867 37.8171 54.1843 38.2597 53.9777C38.7024 53.771 38.9244 53.4424 38.9258 52.9917ZM39.8139 60.0277C39.8077 62.0471 38.3789 63.0523 35.5275 63.0434C34.6782 63.0408 33.8813 62.8996 33.1369 62.62C32.4011 62.3404 31.8087 61.9225 31.3597 61.3665C30.9108 60.8104 30.6876 60.138 30.69 59.3494C30.6915 58.8814 30.7924 58.4614 30.9929 58.0893C31.1934 57.7259 31.4799 57.5448 31.8526 57.546C31.9739 57.5464 32.0779 57.5727 32.1644 57.625C32.2508 57.6859 32.3329 57.7728 32.4106 57.8857C32.0541 58.2313 31.8751 58.6857 31.8733 59.2491C31.8711 59.9771 32.1294 60.5109 32.6483 60.8505C33.1673 61.1988 33.86 61.3916 34.7266 61.4289C34.3891 61.2632 34.1299 61.0067 33.9489 60.6595C33.7767 60.3123 33.6912 59.922 33.6926 59.4887C33.695 58.7174 33.9698 58.1246 34.5171 57.7103C35.0731 57.296 35.7714 57.0902 36.612 57.0928C37.2187 57.0947 37.7643 57.2133 38.2489 57.4489C38.7422 57.6931 39.1268 58.0366 39.4027 58.4794C39.6787 58.9223 39.8158 59.4384 39.8139 60.0277ZM38.9039 60.0249C38.9053 59.5742 38.6854 59.2442 38.244 59.0348C37.8026 58.8341 37.2873 58.7329 36.698 58.731C36.1606 58.7294 35.6836 58.8276 35.267 59.0256C34.8591 59.2323 34.6544 59.561 34.653 60.0117C34.6515 60.4797 34.8411 60.8139 35.2219 61.0145C35.6112 61.215 36.1006 61.3162 36.6899 61.318C37.2792 61.3199 37.7952 61.2175 38.2379 61.0108C38.6805 60.8042 38.9025 60.4756 38.9039 60.0249ZM33.7791 69.3042L33.7755 70.4612L32.8138 70.3672L32.8171 69.3012L30.9451 69.2954L30.9498 67.7744L32.8218 67.7802L32.8328 64.2443C32.8333 64.0969 32.8813 63.9801 32.9769 63.8937C33.0812 63.8074 33.2156 63.7644 33.3803 63.765C33.571 63.7656 33.8133 63.8616 34.1074 64.0532L39.5298 67.8011L39.5251 69.3221L33.7791 69.3042ZM37.7098 67.7954L33.7922 65.0792L33.7838 67.7832L37.7098 67.7954ZM39.7702 74.0941C39.764 76.1134 38.3352 77.1186 35.4838 77.1098C34.6345 77.1071 33.8376 76.966 33.0932 76.6863C32.3574 76.4067 31.765 75.9889 31.316 75.4328C30.8671 74.8767 30.6439 74.2044 30.6463 73.4157C30.6478 72.9477 30.7487 72.5277 30.9492 72.1557C31.1497 71.7923 31.4362 71.6112 31.8089 71.6123C31.9302 71.6127 32.0342 71.639 32.1207 71.6913C32.2071 71.7522 32.2892 71.8391 32.3669 71.9521C32.0104 72.2976 31.8314 72.7521 31.8296 73.3154C31.8274 74.0434 32.0857 74.5772 32.6046 74.9168C33.1236 75.2651 33.8163 75.4579 34.6829 75.4953C34.3454 75.3296 34.0862 75.0731 33.9052 74.7258C33.733 74.3786 33.6475 73.9884 33.6489 73.555C33.6513 72.7837 33.9261 72.1909 34.4734 71.7766C35.0294 71.3623 35.7277 71.1565 36.5683 71.1591C37.175 71.161 37.7206 71.2797 38.2052 71.5152C38.6985 71.7594 39.0831 72.1029 39.359 72.5458C39.635 72.9886 39.7721 73.5047 39.7702 74.0941ZM38.8602 74.0912C38.8616 73.6406 38.6417 73.3106 38.2003 73.1012C37.7589 72.9005 37.2436 72.7992 36.6543 72.7974C36.1169 72.7957 35.6399 72.8939 35.2233 73.0919C34.8154 73.2987 34.6107 73.6274 34.6093 74.078C34.6078 74.546 34.7974 74.8803 35.1782 75.0808C35.5675 75.2813 36.0569 75.3825 36.6462 75.3844C37.2355 75.3862 37.7515 75.2838 38.1942 75.0772C38.6368 74.8705 38.8588 74.5419 38.8602 74.0912ZM39.746 81.8812C39.7446 82.3492 39.6436 82.7649 39.4432 83.1283C39.2427 83.5003 38.9561 83.6858 38.5834 83.6846C38.4621 83.6843 38.3582 83.6536 38.2717 83.5927C38.1852 83.5404 38.1031 83.4578 38.0255 83.3449C38.3819 82.9993 38.561 82.5449 38.5627 81.9816C38.5649 81.2709 38.3023 80.7371 37.7747 80.3801C37.2558 80.0318 36.5674 79.839 35.7095 79.8017C36.0384 79.9414 36.2933 80.1892 36.4742 80.5451C36.655 80.9096 36.7448 81.3086 36.7435 81.7419C36.7411 82.5132 36.4619 83.106 35.9059 83.5203C35.3586 83.9346 34.6647 84.1405 33.824 84.1378C33.2173 84.136 32.6674 84.0129 32.1741 83.7687C31.6895 83.5332 31.3093 83.194 31.0333 82.7512C30.7573 82.3083 30.6203 81.7922 30.6221 81.2029C30.6284 79.1836 32.0572 78.1783 34.9085 78.1872C35.7578 78.1898 36.5504 78.331 37.2862 78.6106C38.0307 78.8902 38.6274 79.3081 39.0763 79.8641C39.5252 80.4202 39.7485 81.0926 39.746 81.8812ZM35.7831 81.2189C35.7844 80.7943 35.5904 80.4773 35.201 80.2681C34.8203 80.0676 34.3354 79.9491 33.7461 79.9126C33.1394 79.9367 32.619 80.0477 32.1851 80.2457C31.7511 80.4437 31.5335 80.7637 31.5321 81.2057C31.5307 81.6564 31.7507 81.9821 32.1921 82.1828C32.6334 82.3921 33.1488 82.4977 33.7381 82.4996C34.2581 82.5012 34.7264 82.3943 35.1431 82.1789C35.5684 81.9636 35.7818 81.6436 35.7831 81.2189Z" fill="white"/>
<line id="Line 8" x1="56.0034" y1="56.5" x2="189.004" y2="57.4173" stroke="white"/>
<line id="Line 9" x1="56.5" y1="11" x2="56.5" y2="103" stroke="white"/>
<line id="Line 10" x1="261.5" y1="11" x2="261.5" y2="103" stroke="white"/>
<line id="Line 11" x1="99.5" y1="11" x2="99.5" y2="103" stroke="white"/>
<line id="Line 12" x1="144.5" y1="11" x2="144.5" y2="104" stroke="white"/>
<path id="Gratis" d="M231.302 91.1119L221.576 91.1717C220.188 91.0045 218.964 90.4163 217.903 89.4072C216.802 88.3397 216.247 87.0248 216.238 85.4623L220.369 85.4369C220.393 86.2766 220.797 86.7917 221.579 86.9822C221.755 87.0202 221.902 87.0388 222.019 87.0381L231.277 86.9811C232.077 86.9566 232.602 86.5042 232.851 85.6237C232.889 85.5063 232.908 85.4183 232.907 85.3597L237.038 85.3342C237.045 86.467 236.652 87.6023 235.858 88.74C234.735 90.2899 233.216 91.0805 231.302 91.1119ZM237.029 83.7522L232.898 83.7777C232.896 83.5628 232.719 83.2905 232.365 82.9606C232.032 82.6697 231.679 82.5254 231.308 82.5277L230.341 82.5336L230.349 83.7934L226.54 83.8168L226.507 78.397L231.693 78.3651C232.903 78.3576 234.099 78.9753 235.278 80.218C236.418 81.4024 237.002 82.5805 237.029 83.7522ZM220.359 83.8549L216.228 83.8803C216.219 82.435 216.836 81.1421 218.079 80.0017C219.186 78.9597 220.404 78.4346 221.732 78.4264L223.251 82.4601L222.108 82.4671C221.19 82.4728 220.626 82.8278 220.416 83.5323C220.377 83.6497 220.358 83.7572 220.359 83.8549ZM236.835 76.1068L220.136 76.2096L220.112 72.2253L221.957 72.214C221.074 71.5358 220.463 70.6118 220.124 69.442C220.004 69.0326 219.943 68.6228 219.94 68.2126L219.934 67.158L223.865 68.042C223.892 69.2723 224.436 70.3334 225.496 71.2254C226.262 71.8652 227.055 72.1826 227.875 72.1775L236.81 72.1225L236.835 76.1068ZM232.906 66.0527C234.039 66.0457 234.992 65.5027 235.767 64.4237C236.425 63.5017 236.75 62.3864 236.742 61.0778L233.139 61.1C233.145 62.0961 232.914 62.6541 232.446 62.7742C232.329 62.7944 232.212 62.8049 232.095 62.8057L231.685 62.8082C231.352 62.7907 231.127 62.6651 231.008 62.4315C230.949 62.3342 230.84 61.9735 230.68 61.3495C230.24 59.8287 229.863 58.8057 229.547 58.2802L231.95 58.2654C232.536 58.2618 232.908 58.533 233.068 59.0789C233.108 59.2154 233.128 59.3617 233.129 59.518L236.733 59.4958C236.706 58.285 236.387 57.3006 235.777 56.5426C236.398 55.8161 236.704 54.8572 236.697 53.6658L233.064 53.6882C233.028 54.2158 232.717 54.4911 232.132 54.5143L224.485 54.5613C223.411 54.568 222.418 55.0233 221.505 55.9274C220.515 56.9296 220.025 58.1631 220.034 59.6279L223.637 59.6057C223.691 58.7655 224.069 58.3335 224.772 58.3096L225.446 58.3055C225.993 58.3021 226.624 59.3432 227.34 61.4287C227.976 63.2216 228.363 64.2447 228.502 64.4977C229.192 65.5287 230.162 66.05 231.412 66.0619L232.906 66.0527ZM224.262 65.9008L225.53 62.4945C224.3 62.4826 223.672 62.0274 223.647 61.1291L220.043 61.1513C220.052 62.4989 220.547 63.6776 221.53 64.6871C222.355 65.4829 223.266 65.8874 224.262 65.9008ZM223.77 52.6028L219.991 52.6261L219.978 50.5753L215.701 50.6017L215.677 46.676L219.954 46.6496L219.942 44.7161L223.751 44.6926L223.763 46.6262L231.526 46.5784C232.229 46.535 232.588 46.1714 232.603 45.4877L232.598 44.6382L236.636 43.7344L236.646 45.4921C236.662 48.0507 235.705 49.6191 233.775 50.1974C233.073 50.3971 232.234 50.4999 231.257 50.5059L223.757 50.5521L223.77 52.6028ZM217.553 42.094C216.752 42.0989 216.144 41.7414 215.73 41.0212C215.533 40.6904 215.433 40.3395 215.43 39.9684C215.425 39.1481 215.783 38.5306 216.503 38.116C216.834 37.9382 217.175 37.8482 217.527 37.8461C218.347 37.841 218.964 38.1985 219.379 38.9187C219.557 39.2496 219.647 39.5908 219.649 39.9424C219.654 40.7822 219.287 41.4095 218.547 41.8242C218.236 42.0019 217.904 42.0919 217.553 42.094ZM236.624 41.7715L220.804 41.8689L220.779 37.9432L236.599 37.8458L236.624 41.7715ZM232.192 35.7049L231.495 32.0763C232.14 32.0724 232.597 31.7375 232.866 31.0718C232.943 30.8369 232.99 30.6218 233.009 30.4264L236.7 30.4036C236.714 32.6692 235.923 34.2464 234.327 35.1351C233.665 35.5103 232.953 35.7002 232.192 35.7049ZM224.456 35.5768C222.64 35.588 221.287 34.7467 220.398 33.0529C219.943 32.2158 219.714 31.3872 219.709 30.5669L223.341 30.5445C223.367 31.5014 223.731 31.9777 224.434 31.9733C225.176 31.9688 225.825 31.0663 226.38 29.266C226.591 28.6006 226.791 27.8181 226.981 26.9185C227.227 25.5693 227.973 24.6077 229.219 24.0336C229.862 23.7366 230.574 23.5858 231.355 23.581C233.386 23.5684 234.885 24.36 235.852 25.9557C236.405 26.8702 236.685 27.9135 236.692 29.0853L233.001 29.108C232.996 28.4245 232.769 27.918 232.317 27.5888C232.102 27.4339 231.867 27.3572 231.613 27.3587C231.007 27.3625 230.485 28.1079 230.045 29.595C229.987 29.8297 229.892 30.1916 229.758 30.6808C229.491 31.7176 229.271 32.4318 229.098 32.8235C228.384 34.2537 227.325 35.1197 225.92 35.4213C225.452 35.5218 224.964 35.5737 224.456 35.5768ZM223.333 29.2262L219.7 29.2192C219.689 27.4614 220.325 26.0415 221.608 24.9594C222.443 24.2706 223.33 23.9233 224.267 23.9176L224.905 27.5172C224.026 27.5226 223.511 27.9946 223.361 28.933C223.342 29.0503 223.333 29.148 223.333 29.2262Z" fill="white"/>
<line id="Line 13" x1="189.5" y1="11" x2="189.5" y2="104" stroke="white"/>
</g>
<g id="soup6">
<path id="soppa" d="M156.421 83.666L181.544 83.9634C181.544 83.9634 177.575 89.9953 176.255 91.1159C175.568 91.6992 171.898 93.1095 168.522 93.0696C165.145 93.0296 162.167 91.9269 161.034 90.4812C159.447 88.4548 156.421 83.666 156.421 83.666Z" fill="url(#paint0_diamond)"/>
<path id="Vector_4" d="M154.813 75.3721C157.121 77.2419 158.118 78.5003 159.25 79.7398C160.114 80.6862 160.704 81.3319 161.967 82.7145C162.785 83.6104 161.931 85.4152 164.06 87.7468C165.573 89.4024 168.235 89.8726 168.54 88.716C168.846 87.5594 168.338 85.5367 166.973 84.0438C164.844 81.7137 163.545 82.482 162.726 81.5852C161.464 80.2036 160.874 79.5576 160.01 78.6108C158.877 77.3714 158.179 76.7387 156.381 74.1124C155.491 72.8121 154.245 71.2137 153.393 72.4797C152.541 73.7447 153.67 74.4479 154.813 75.3721ZM163.582 83.6356C163.841 83.2506 164.165 83.1146 164.619 83.0866C164.664 83.0971 164.707 83.1058 164.752 83.1162C163.782 84.9187 164.117 86.3051 165.558 88.3162C164.98 88.03 164.678 87.7576 164.204 87.2412C163.34 86.2951 163.362 86.0423 163.212 85.1856C163.112 84.611 163.322 84.022 163.582 83.6356Z" fill="white"/>
<rect id="Rectangle 67" width="9.96319" height="1.54333" rx="0.771665" transform="matrix(0.99993 0.0118355 -0.00372944 0.999993 163.753 92.2417)" fill="white"/>
<path id="Ellipse 19" d="M180.989 80.5919C180.964 87.4513 175.463 92.9233 168.732 92.8436C162.001 92.764 156.541 87.1622 156.567 80.3028C156.569 79.7006 156.571 79.2682 156.597 78.9339C156.609 78.7712 156.625 78.655 156.643 78.5717C156.648 78.5522 156.652 78.5355 156.656 78.5213C156.753 78.5037 156.938 78.4902 157.275 78.5078C157.743 78.5321 158.319 78.6003 159.086 78.691C159.705 78.7642 160.449 78.8521 161.361 78.9437C163.344 79.1428 165.985 79.3404 169.501 79.382C172.66 79.4194 175.035 79.2844 176.82 79.1338C177.634 79.0652 178.294 78.997 178.843 78.9404C179.539 78.8686 180.055 78.8154 180.475 78.8034C180.704 78.7968 180.842 78.8066 180.923 78.8179C180.939 78.8926 180.959 79.021 180.972 79.2318C180.993 79.5669 180.992 79.9979 180.989 80.5919Z" stroke="white" stroke-width="2"/>
<path id="Vector 11" d="M164.349 76.8137C161.197 74.7985 166.959 68.9311 164.619 66.0129M169.201 76.8659C166.049 74.8506 171.811 68.9832 169.471 66.0651M173.828 76.9156C170.676 74.9003 176.437 69.0329 174.098 66.1148" stroke="white" stroke-width="2" stroke-linecap="round" stroke-linejoin="round"/>
<path id="Vector_5" d="M175.827 87.2381C176.144 86.7161 176.127 86.3808 175.907 86.0596C175.87 86.0404 175.835 86.0205 175.798 86.0008C175.003 87.9251 173.046 89.0772 169.106 90.2546C169.772 90.3678 170.707 90.0502 171.591 89.8839C173.112 89.2942 173.317 89.1792 174.107 88.8182C174.578 88.5157 175.508 87.7621 175.827 87.2381Z" fill="url(#paint1_radial)"/>
</g>
<g id="soup5">
<path id="soppa_2" d="M156.421 38.666L181.544 38.9634C181.544 38.9634 177.575 44.9953 176.255 46.1159C175.568 46.6992 171.898 48.1095 168.522 48.0696C165.145 48.0296 162.167 46.9269 161.034 45.4812C159.447 43.4548 156.421 38.666 156.421 38.666Z" fill="url(#paint2_diamond)"/>
<path id="Vector_6" d="M154.813 30.3721C157.121 32.2419 158.118 33.5003 159.25 34.7398C160.114 35.6862 160.704 36.3319 161.967 37.7145C162.785 38.6104 161.931 40.4152 164.06 42.7468C165.573 44.4024 168.235 44.8726 168.54 43.716C168.846 42.5594 168.338 40.5367 166.973 39.0438C164.844 36.7137 163.545 37.482 162.726 36.5852C161.464 35.2036 160.874 34.5576 160.01 33.6108C158.877 32.3714 158.179 31.7387 156.381 29.1124C155.491 27.8121 154.245 26.2137 153.393 27.4797C152.541 28.7447 153.67 29.4479 154.813 30.3721ZM163.582 38.6356C163.841 38.2506 164.165 38.1146 164.619 38.0866C164.664 38.0971 164.707 38.1058 164.752 38.1162C163.782 39.9187 164.117 41.3051 165.558 43.3162C164.98 43.03 164.678 42.7576 164.204 42.2412C163.34 41.2951 163.362 41.0423 163.212 40.1856C163.112 39.611 163.322 39.022 163.582 38.6356Z" fill="white"/>
<rect id="Rectangle 67_2" width="9.96319" height="1.54333" rx="0.771665" transform="matrix(0.99993 0.0118355 -0.00372944 0.999993 163.753 47.2417)" fill="white"/>
<path id="Ellipse 19_2" d="M180.989 35.5919C180.964 42.4513 175.463 47.9233 168.732 47.8436C162.001 47.764 156.541 42.1622 156.567 35.3028C156.569 34.7006 156.571 34.2682 156.597 33.9339C156.609 33.7712 156.625 33.655 156.643 33.5717C156.648 33.5522 156.652 33.5355 156.656 33.5213C156.753 33.5037 156.938 33.4902 157.275 33.5078C157.743 33.5321 158.319 33.6003 159.086 33.691C159.705 33.7642 160.449 33.8521 161.361 33.9437C163.344 34.1428 165.985 34.3404 169.501 34.382C172.66 34.4194 175.035 34.2844 176.82 34.1338C177.634 34.0652 178.294 33.997 178.843 33.9404C179.539 33.8686 180.055 33.8154 180.475 33.8034C180.704 33.7968 180.842 33.8066 180.923 33.8179C180.939 33.8926 180.959 34.021 180.972 34.2318C180.993 34.5669 180.992 34.9979 180.989 35.5919Z" stroke="white" stroke-width="2"/>
<path id="Vector 11_2" d="M164.349 31.8137C161.197 29.7985 166.959 23.9311 164.619 21.0129M169.201 31.8659C166.049 29.8506 171.811 23.9832 169.471 21.0651M173.828 31.9156C170.676 29.9003 176.437 24.0329 174.098 21.1148" stroke="white" stroke-width="2" stroke-linecap="round" stroke-linejoin="round"/>
<path id="Vector_7" d="M175.827 42.2381C176.144 41.7161 176.127 41.3808 175.907 41.0596C175.87 41.0404 175.835 41.0205 175.798 41.0008C175.003 42.9251 173.046 44.0772 169.106 45.2546C169.772 45.3678 170.707 45.0502 171.591 44.8839C173.112 44.2942 173.317 44.1792 174.107 43.8182C174.578 43.5157 175.508 42.7621 175.827 42.2381Z" fill="url(#paint3_radial)"/>
</g>
<g id="soup4">
<path id="soppa_3" d="M112.421 83.666L137.544 83.9634C137.544 83.9634 133.575 89.9953 132.255 91.1159C131.568 91.6992 127.898 93.1095 124.522 93.0696C121.145 93.0296 118.167 91.9269 117.034 90.4812C115.447 88.4548 112.421 83.666 112.421 83.666Z" fill="url(#paint4_diamond)"/>
<path id="Vector_8" d="M110.813 75.3721C113.121 77.2419 114.118 78.5003 115.25 79.7398C116.114 80.6862 116.704 81.3319 117.967 82.7145C118.785 83.6104 117.931 85.4152 120.06 87.7468C121.573 89.4024 124.235 89.8726 124.54 88.716C124.846 87.5594 124.338 85.5367 122.973 84.0438C120.844 81.7137 119.545 82.482 118.726 81.5852C117.464 80.2036 116.874 79.5576 116.01 78.6108C114.877 77.3714 114.179 76.7387 112.381 74.1124C111.491 72.8121 110.245 71.2137 109.393 72.4797C108.541 73.7447 109.67 74.4479 110.813 75.3721ZM119.582 83.6356C119.841 83.2506 120.165 83.1146 120.619 83.0866C120.664 83.0971 120.707 83.1058 120.752 83.1162C119.782 84.9187 120.117 86.3051 121.558 88.3162C120.98 88.03 120.678 87.7576 120.204 87.2412C119.34 86.2951 119.362 86.0423 119.212 85.1856C119.112 84.611 119.322 84.022 119.582 83.6356Z" fill="white"/>
<rect id="Rectangle 67_3" width="9.96319" height="1.54333" rx="0.771665" transform="matrix(0.99993 0.0118355 -0.00372944 0.999993 119.753 92.2417)" fill="white"/>
<path id="Ellipse 19_3" d="M136.989 80.5919C136.964 87.4513 131.463 92.9233 124.732 92.8436C118.001 92.764 112.541 87.1622 112.567 80.3028C112.569 79.7006 112.571 79.2682 112.597 78.9339C112.609 78.7712 112.625 78.655 112.643 78.5717C112.648 78.5522 112.652 78.5355 112.656 78.5213C112.753 78.5037 112.938 78.4902 113.275 78.5078C113.743 78.5321 114.319 78.6003 115.086 78.691C115.705 78.7642 116.449 78.8521 117.361 78.9437C119.344 79.1428 121.985 79.3404 125.501 79.382C128.66 79.4194 131.035 79.2844 132.82 79.1338C133.634 79.0652 134.294 78.997 134.843 78.9404C135.539 78.8686 136.055 78.8154 136.475 78.8034C136.704 78.7968 136.842 78.8066 136.923 78.8179C136.939 78.8926 136.959 79.021 136.972 79.2318C136.993 79.5669 136.992 79.9979 136.989 80.5919Z" stroke="white" stroke-width="2"/>
<path id="Vector 11_3" d="M120.349 76.8137C117.197 74.7985 122.959 68.9311 120.619 66.0129M125.201 76.8659C122.049 74.8506 127.811 68.9832 125.471 66.0651M129.828 76.9156C126.676 74.9003 132.437 69.0329 130.098 66.1148" stroke="white" stroke-width="2" stroke-linecap="round" stroke-linejoin="round"/>
<path id="Vector_9" d="M131.827 87.2381C132.144 86.7161 132.127 86.3808 131.907 86.0596C131.87 86.0404 131.835 86.0205 131.798 86.0008C131.003 87.9251 129.046 89.0772 125.106 90.2546C125.772 90.3678 126.707 90.0502 127.591 89.8839C129.112 89.2942 129.317 89.1792 130.107 88.8182C130.578 88.5157 131.508 87.7621 131.827 87.2381Z" fill="url(#paint5_radial)"/>
</g>
<g id="soup3">
<path id="soppa_4" d="M112.421 38.666L137.544 38.9634C137.544 38.9634 133.575 44.9953 132.255 46.1159C131.568 46.6992 127.898 48.1095 124.522 48.0696C121.145 48.0296 118.167 46.9269 117.034 45.4812C115.447 43.4548 112.421 38.666 112.421 38.666Z" fill="url(#paint6_diamond)"/>
<path id="Vector_10" d="M110.813 30.3721C113.121 32.2419 114.118 33.5003 115.25 34.7398C116.114 35.6862 116.704 36.3319 117.967 37.7145C118.785 38.6104 117.931 40.4152 120.06 42.7468C121.573 44.4024 124.235 44.8726 124.54 43.716C124.846 42.5594 124.338 40.5367 122.973 39.0438C120.844 36.7137 119.545 37.482 118.726 36.5852C117.464 35.2036 116.874 34.5576 116.01 33.6108C114.877 32.3714 114.179 31.7387 112.381 29.1124C111.491 27.8121 110.245 26.2137 109.393 27.4797C108.541 28.7447 109.67 29.4479 110.813 30.3721ZM119.582 38.6356C119.841 38.2506 120.165 38.1146 120.619 38.0866C120.664 38.0971 120.707 38.1058 120.752 38.1162C119.782 39.9187 120.117 41.3051 121.558 43.3162C120.98 43.03 120.678 42.7576 120.204 42.2412C119.34 41.2951 119.362 41.0423 119.212 40.1856C119.112 39.611 119.322 39.022 119.582 38.6356Z" fill="white"/>
<rect id="Rectangle 67_4" width="9.96319" height="1.54333" rx="0.771665" transform="matrix(0.99993 0.0118355 -0.00372944 0.999993 119.753 47.2417)" fill="white"/>
<path id="Ellipse 19_4" d="M136.989 35.5919C136.964 42.4513 131.463 47.9233 124.732 47.8436C118.001 47.764 112.541 42.1622 112.567 35.3028C112.569 34.7006 112.571 34.2682 112.597 33.9339C112.609 33.7712 112.625 33.655 112.643 33.5717C112.648 33.5522 112.652 33.5355 112.656 33.5213C112.753 33.5037 112.938 33.4902 113.275 33.5078C113.743 33.5321 114.319 33.6003 115.086 33.691C115.705 33.7642 116.449 33.8521 117.361 33.9437C119.344 34.1428 121.985 34.3404 125.501 34.382C128.66 34.4194 131.035 34.2844 132.82 34.1338C133.634 34.0652 134.294 33.997 134.843 33.9404C135.539 33.8686 136.055 33.8154 136.475 33.8034C136.704 33.7968 136.842 33.8066 136.923 33.8179C136.939 33.8926 136.959 34.021 136.972 34.2318C136.993 34.5669 136.992 34.9979 136.989 35.5919Z" stroke="white" stroke-width="2"/>
<path id="Vector 11_4" d="M120.349 31.8137C117.197 29.7985 122.959 23.9311 120.619 21.0129M125.201 31.8659C122.049 29.8506 127.811 23.9832 125.471 21.0651M129.828 31.9156C126.676 29.9003 132.437 24.0329 130.098 21.1148" stroke="white" stroke-width="2" stroke-linecap="round" stroke-linejoin="round"/>
<path id="Vector_11" d="M131.827 42.2381C132.144 41.7161 132.127 41.3808 131.907 41.0596C131.87 41.0404 131.835 41.0205 131.798 41.0008C131.003 42.9251 129.046 44.0772 125.106 45.2546C125.772 45.3678 126.707 45.0502 127.591 44.8839C129.112 44.2942 129.317 44.1792 130.107 43.8182C130.578 43.5157 131.508 42.7621 131.827 42.2381Z" fill="url(#paint7_radial)"/>
</g>
<g id="soup2">
<path id="soppa_5" d="M67.4212 83.666L92.544 83.9634C92.544 83.9634 88.5754 89.9953 87.2549 91.1159C86.5676 91.6992 82.898 93.1095 79.5216 93.0696C76.1452 93.0296 73.1668 91.9269 72.0341 90.4812C70.4465 88.4548 67.4212 83.666 67.4212 83.666Z" fill="url(#paint8_diamond)"/>
<path id="Vector_12" d="M65.8126 75.3721C68.1212 77.2419 69.1176 78.5003 70.2498 79.7398C71.1144 80.6862 71.7045 81.3319 72.9666 82.7145C73.7855 83.6104 72.9312 85.4152 75.06 87.7468C76.5728 89.4024 79.2347 89.8726 79.5404 88.716C79.8461 87.5594 79.3375 85.5367 77.9731 84.0438C75.8437 81.7137 74.5453 82.482 73.7264 81.5852C72.4639 80.2036 71.874 79.5576 71.0097 78.6108C69.8775 77.3714 69.1791 76.7387 67.3805 74.1124C66.4915 72.8121 65.2454 71.2137 64.3928 72.4797C63.5408 73.7447 64.6702 74.4479 65.8126 75.3721ZM74.5821 83.6356C74.8409 83.2506 75.1646 83.1146 75.6193 83.0866C75.6636 83.0971 75.7067 83.1058 75.7518 83.1162C74.782 84.9187 75.1168 86.3051 76.5584 88.3162C75.9795 88.03 75.678 87.7576 75.2038 87.2412C74.3395 86.2951 74.3616 86.0423 74.2122 85.1856C74.1125 84.611 74.3219 84.022 74.5821 83.6356Z" fill="white"/>
<rect id="Rectangle 67_5" width="9.96319" height="1.54333" rx="0.771665" transform="matrix(0.99993 0.0118355 -0.00372944 0.999993 74.7532 92.2417)" fill="white"/>
<path id="Ellipse 19_5" d="M91.9893 80.5919C91.9637 87.4513 86.4629 92.9233 79.7319 92.8436C73.0008 92.764 67.5413 87.1622 67.5669 80.3028C67.5692 79.7006 67.5714 79.2682 67.5966 78.9339C67.609 78.7712 67.6253 78.655 67.6434 78.5717C67.6476 78.5522 67.6517 78.5355 67.6555 78.5213C67.7528 78.5037 67.9377 78.4902 68.2747 78.5078C68.7429 78.5321 69.319 78.6003 70.0861 78.691C70.7052 78.7642 71.4488 78.8521 72.3607 78.9437C74.3442 79.1428 76.985 79.3404 80.5007 79.382C83.6602 79.4194 86.0354 79.2844 87.82 79.1338C88.634 79.0652 89.2945 78.997 89.843 78.9404C90.539 78.8686 91.0547 78.8154 91.4747 78.8034C91.7035 78.7968 91.8424 78.8066 91.9227 78.8179C91.9393 78.8926 91.9592 79.021 91.9721 79.2318C91.9927 79.5669 91.9915 79.9979 91.9893 80.5919Z" stroke="white" stroke-width="2"/>
<path id="Vector 11_5" d="M75.3492 76.8137C72.1973 74.7985 77.9586 68.9311 75.6192 66.0129M80.2013 76.8659C77.0495 74.8506 82.8108 68.9832 80.4714 66.0651M84.8277 76.9156C81.6759 74.9003 87.4372 69.0329 85.0978 66.1148" stroke="white" stroke-width="2" stroke-linecap="round" stroke-linejoin="round"/>
<path id="Vector_13" d="M86.8266 87.2381C87.1445 86.7161 87.1272 86.3808 86.9073 86.0596C86.87 86.0404 86.8355 86.0205 86.7978 86.0008C86.0027 87.9251 84.046 89.0772 80.1058 90.2546C80.7722 90.3678 81.7071 90.0502 82.5914 89.8839C84.1118 89.2942 84.3166 89.1792 85.1066 88.8182C85.5782 88.5157 86.5079 87.7621 86.8266 87.2381Z" fill="url(#paint9_radial)"/>
</g>
<g id="soup1">
<path id="soppa_6" d="M67.4212 39.666L92.544 39.9634C92.544 39.9634 88.5754 45.9953 87.2549 47.1159C86.5676 47.6992 82.898 49.1095 79.5216 49.0696C76.1452 49.0296 73.1668 47.9269 72.0341 46.4812C70.4465 44.4548 67.4212 39.666 67.4212 39.666Z" fill="url(#paint10_diamond)"/>
<path id="Vector_14" d="M65.8126 31.3721C68.1212 33.2419 69.1176 34.5003 70.2498 35.7398C71.1144 36.6862 71.7045 37.3319 72.9666 38.7145C73.7855 39.6104 72.9312 41.4152 75.06 43.7468C76.5728 45.4024 79.2347 45.8726 79.5404 44.716C79.8461 43.5594 79.3375 41.5367 77.9731 40.0438C75.8437 37.7137 74.5453 38.482 73.7264 37.5852C72.4639 36.2036 71.874 35.5576 71.0097 34.6108C69.8775 33.3714 69.1791 32.7387 67.3805 30.1124C66.4915 28.8121 65.2454 27.2137 64.3928 28.4797C63.5408 29.7447 64.6702 30.4479 65.8126 31.3721ZM74.5821 39.6356C74.8409 39.2506 75.1646 39.1146 75.6193 39.0866C75.6636 39.0971 75.7067 39.1058 75.7518 39.1162C74.782 40.9187 75.1168 42.3051 76.5584 44.3162C75.9795 44.03 75.678 43.7576 75.2038 43.2412C74.3395 42.2951 74.3616 42.0423 74.2122 41.1856C74.1125 40.611 74.3219 40.022 74.5821 39.6356Z" fill="white"/>
<rect id="Rectangle 67_6" width="9.96319" height="1.54333" rx="0.771665" transform="matrix(0.99993 0.0118355 -0.00372944 0.999993 74.7532 48.2417)" fill="white"/>
<path id="Ellipse 19_6" d="M91.9893 36.5919C91.9637 43.4513 86.4629 48.9233 79.7319 48.8436C73.0008 48.764 67.5413 43.1622 67.5669 36.3028C67.5692 35.7006 67.5714 35.2682 67.5966 34.9339C67.609 34.7712 67.6253 34.655 67.6434 34.5717C67.6476 34.5522 67.6517 34.5355 67.6555 34.5213C67.7528 34.5037 67.9377 34.4902 68.2747 34.5078C68.7429 34.5321 69.319 34.6003 70.0861 34.691C70.7052 34.7642 71.4488 34.8521 72.3607 34.9437C74.3442 35.1428 76.985 35.3404 80.5007 35.382C83.6602 35.4194 86.0354 35.2844 87.82 35.1338C88.634 35.0652 89.2945 34.997 89.843 34.9404C90.539 34.8686 91.0547 34.8154 91.4747 34.8034C91.7035 34.7968 91.8424 34.8066 91.9227 34.8179C91.9393 34.8926 91.9592 35.021 91.9721 35.2318C91.9927 35.5669 91.9915 35.9979 91.9893 36.5919Z" stroke="white" stroke-width="2"/>
<path id="Vector 11_6" d="M75.3492 32.8137C72.1973 30.7985 77.9586 24.9311 75.6192 22.0129M80.2013 32.8659C77.0495 30.8506 82.8108 24.9832 80.4714 22.0651M84.8277 32.9156C81.6759 30.9003 87.4372 25.0329 85.0978 22.1148" stroke="white" stroke-width="2" stroke-linecap="round" stroke-linejoin="round"/>
<path id="Vector_15" d="M86.8266 43.2381C87.1445 42.7161 87.1272 42.3808 86.9073 42.0596C86.87 42.0404 86.8355 42.0205 86.7978 42.0008C86.0027 43.9251 84.046 45.0772 80.1058 46.2546C80.7722 46.3678 81.7071 46.0502 82.5914 45.8839C84.1118 45.2942 84.3166 45.1792 85.1066 44.8182C85.5782 44.5157 86.5079 43.7621 86.8266 43.2381Z" fill="url(#paint11_radial)"/>
</g>
</g>
<defs>
<radialGradient id="paint0_diamond" cx="0" cy="0" r="1" gradientUnits="userSpaceOnUse" gradientTransform="translate(168.965 88.4447) rotate(90.2137) scale(4.62999 12.5619)">
<stop stop-color="white"/>
<stop offset="1" stop-color="white" stop-opacity="0.34"/>
</radialGradient>
<radialGradient id="paint1_radial" cx="0" cy="0" r="1" gradientUnits="userSpaceOnUse" gradientTransform="translate(172.749 88.9504) rotate(-15.5942) scale(4.42988 1.0246)">
<stop offset="0.161458" stop-color="white"/>
<stop offset="1" stop-color="white"/>
</radialGradient>
<radialGradient id="paint2_diamond" cx="0" cy="0" r="1" gradientUnits="userSpaceOnUse" gradientTransform="translate(168.965 43.4447) rotate(90.2137) scale(4.62999 12.5619)">
<stop stop-color="white"/>
<stop offset="1" stop-color="white" stop-opacity="0.34"/>
</radialGradient>
<radialGradient id="paint3_radial" cx="0" cy="0" r="1" gradientUnits="userSpaceOnUse" gradientTransform="translate(172.749 43.9504) rotate(-15.5942) scale(4.42988 1.0246)">
<stop offset="0.161458" stop-color="white"/>
<stop offset="1" stop-color="white"/>
</radialGradient>
<radialGradient id="paint4_diamond" cx="0" cy="0" r="1" gradientUnits="userSpaceOnUse" gradientTransform="translate(124.965 88.4447) rotate(90.2137) scale(4.62999 12.5619)">
<stop stop-color="white"/>
<stop offset="1" stop-color="white" stop-opacity="0.34"/>
</radialGradient>
<radialGradient id="paint5_radial" cx="0" cy="0" r="1" gradientUnits="userSpaceOnUse" gradientTransform="translate(128.749 88.9504) rotate(-15.5942) scale(4.42988 1.0246)">
<stop offset="0.161458" stop-color="white"/>
<stop offset="1" stop-color="white"/>
</radialGradient>
<radialGradient id="paint6_diamond" cx="0" cy="0" r="1" gradientUnits="userSpaceOnUse" gradientTransform="translate(124.965 43.4447) rotate(90.2137) scale(4.62999 12.5619)">
<stop stop-color="white"/>
<stop offset="1" stop-color="white" stop-opacity="0.34"/>
</radialGradient>
<radialGradient id="paint7_radial" cx="0" cy="0" r="1" gradientUnits="userSpaceOnUse" gradientTransform="translate(128.749 43.9504) rotate(-15.5942) scale(4.42988 1.0246)">
<stop offset="0.161458" stop-color="white"/>
<stop offset="1" stop-color="white"/>
</radialGradient>
<radialGradient id="paint8_diamond" cx="0" cy="0" r="1" gradientUnits="userSpaceOnUse" gradientTransform="translate(79.9653 88.4447) rotate(90.2137) scale(4.62999 12.5619)">
<stop stop-color="white"/>
<stop offset="1" stop-color="white" stop-opacity="0.34"/>
</radialGradient>
<radialGradient id="paint9_radial" cx="0" cy="0" r="1" gradientUnits="userSpaceOnUse" gradientTransform="translate(83.7489 88.9504) rotate(-15.5942) scale(4.42988 1.0246)">
<stop offset="0.161458" stop-color="white"/>
<stop offset="1" stop-color="white"/>
</radialGradient>
<radialGradient id="paint10_diamond" cx="0" cy="0" r="1" gradientUnits="userSpaceOnUse" gradientTransform="translate(79.9653 44.4447) rotate(90.2137) scale(4.62999 12.5619)">
<stop stop-color="white"/>
<stop offset="1" stop-color="white" stop-opacity="0.34"/>
</radialGradient>
<radialGradient id="paint11_radial" cx="0" cy="0" r="1" gradientUnits="userSpaceOnUse" gradientTransform="translate(83.7489 44.9504) rotate(-15.5942) scale(4.42988 1.0246)">
<stop offset="0.161458" stop-color="white"/>
<stop offset="1" stop-color="white"/>
</radialGradient>
</defs>
</svg>
